<?xml version="1.0" encoding="utf-8" ?><svg xmlns="http://www.w3.org/2000/svg" xmlns:xlink="http://www.w3.org/1999/xlink" width="1350" height="1350" viewBox="0 0 1350 1350"><path fill="#EEEAD1" transform="scale(1.31812 1.31812)" d="M278.341 277.577C293.009 278.372 307.035 277.843 321.717 277.818L393.419 277.803L624.576 277.806C663.532 277.805 702.612 277.375 741.561 278.389C743.529 278.44 744.053 278.62 745.348 279.881C746.606 285.832 746.165 298.675 746.158 305.247L746.171 342.8L746.153 500.218L746.151 667.193L746.181 717.475C746.189 725.835 746.27 734.658 745.947 743.022C745.893 744.408 745.423 745.354 744.37 746.247C709.404 745.529 671.516 746.391 636.258 746.408L411.055 746.441C368.41 746.437 319.81 747.495 277.7 745.453C277.085 733.959 277.549 718.733 277.568 706.896L277.586 638.515L277.811 420.226L278.037 322.446L277.87 294.679C277.841 290.387 277.542 281.442 278.341 277.577Z"/></svg>