<?xml version="1.0" encoding="utf-8" ?><svg xmlns="http://www.w3.org/2000/svg" xmlns:xlink="http://www.w3.org/1999/xlink" width="2065" height="2065" viewBox="0 0 2065 2065"><path transform="scale(2.0166 2.0166)" d="M908.229 158.974C911.443 155.914 915.648 151.103 919.999 150.798C923.498 151.787 923.364 154.036 923.491 157.084C926.652 162.297 927.184 158.867 929.803 167.134C945.14 164.42 941.646 177.328 944.837 178.079C957.573 181.078 954.59 195.115 949.873 203.303C955.429 216.222 956.424 228.445 951.484 242.005C949.338 247.895 944.642 254.009 942.283 260.251C936.491 275.581 931.106 291.575 926.001 307.146C929.333 309.583 932.036 311.427 934.807 314.535C931.347 324.289 925.485 334.337 922.33 343.35C927.694 346.949 931.932 349.998 936.459 354.605C928.009 367.251 919.285 381.248 910.381 393.283C897.184 411.123 886.222 427.656 876.903 447.891C873.111 456.124 866.694 464.428 862.396 472.528C856.092 482.872 856.452 492.716 850.514 502.747C846.665 509.251 837.124 512.029 833.27 517.574C829.55 522.925 830.494 531.476 825.608 537.346C816.945 547.753 806.527 556.249 797.981 566.917C789.463 577.55 788.196 586.866 778.401 596.907C765.822 609.8 753.049 622.087 740.201 634.73C732.724 642.088 724.36 649.887 717.306 657.593C715.18 659.915 710.688 667.093 708.913 669.871C717.76 717.145 721.845 765.317 730.335 812.693C732.569 825.161 734.084 837.848 736.509 850.289C739.129 863.948 746.565 880.415 747.605 894.492C747.736 896.267 746.389 899.096 745.619 900.692L760.259 978.928C762.974 993.149 766.8 1010.03 768.957 1024L255.805 1024L279.496 897.858C274.721 891.871 278.637 884.047 280.6 877.186C282.603 870.164 284.556 863.129 286.461 856.08C289.144 845.846 290.964 833.169 292.754 822.501C297.781 792.781 302.208 762.961 306.033 733.062C307.839 719.715 309.758 706.384 311.79 693.07C312.74 686.729 314.087 676.215 315.595 670.254C313.629 666.928 310.47 660.726 307.991 657.704C302.327 650.798 295.503 645.722 289.212 639.123C272.143 621.217 250.289 605.001 237.071 583.964C233.931 578.965 232.662 573.163 228.48 568.648C219.129 556.904 207.474 547.178 197.876 535.738C194.262 531.43 194.86 523.39 192.114 518.632C187.987 511.925 177.791 509.471 173.49 501.976C168.018 492.439 168.497 483.038 162.626 473.286C157.773 465.732 153.509 457.39 148.825 449.8C143.361 440.948 138.462 426.763 132.542 418.775C116.938 397.724 102.555 375.798 87.9045 354.179C93.0231 349.393 96.3325 346.625 102.213 342.84C98.9745 335.777 95.7746 328.785 92.8639 321.582C89.0186 312.066 91.0747 311.742 99.0872 306.973C93.0986 290.773 88.2559 273.973 81.9948 257.805C79.18 250.536 74.0365 245.282 72.6589 237.863C70.1359 224.277 70.0871 215.939 74.6576 203.191C70.8248 196.451 68.3218 185.132 75.4762 179.598C77.3448 178.152 80.8322 179.266 81.3705 176.233C82.8744 167.763 85.8702 165.466 95.186 167.153C100.004 156.365 105.99 152.255 116.348 160.665C117.81 158.297 119.111 156.518 121.964 155.872C125.405 155.093 128.962 156.639 131.77 158.511C136.948 161.963 142.754 168.059 145.171 173.855C146.438 176.894 147.214 180.256 148.375 183.362C149.502 186.38 151.109 189.49 151.649 192.681C154.043 206.816 124.882 226.065 129.4 248.128C130.923 255.561 141.716 274.468 145.711 282.76C146.854 283.325 147.195 283.207 148.502 283.267C152.403 285.588 163.546 315.705 166.775 314.463C167.013 314.372 168.075 313.673 168.316 313.517C169.454 313.697 169.541 313.486 170.24 314.626C180.163 330.804 188.723 347.706 197.666 364.424C200.565 369.844 205.354 375.163 208.703 380.401C216.458 391.462 224.415 402.189 231.797 413.551C235.661 419.46 239.272 425.531 242.621 431.747C245.679 437.403 248.498 443.434 252.266 448.577C261.396 461.041 272.742 468.268 284.326 477.83C288.485 481.263 289.607 490.676 293.354 494.595C295.491 496.837 301.129 498.826 304.162 501.189C311.583 506.969 314.901 513.764 320.349 520.988C323.015 524.523 330.562 526.495 332.71 531.141C335.071 535.191 336.427 540.834 336.664 545.455C345.297 547.152 352.12 550.872 360.253 553.067C362.523 538.629 373.959 526.662 389.789 528.07C394.338 528.475 395.489 532.693 398.655 535.03C416.605 546.781 434.503 557.124 448.139 574.136C452.05 567.243 458.081 560.427 464.112 555.302C464.024 553.472 463.677 545.579 463.296 544.369C461.635 539.087 459.45 535.302 457.854 529.71C456.722 525.744 456.34 515.903 455.583 514.02C449.108 512.803 448.912 513.495 444.736 507.509C440.933 502.057 435.629 475.755 436.744 469.389C436.972 468.086 437.332 467.274 438.222 466.265C440.935 464.804 442.73 465.893 445.413 466.845C439.107 443.576 435.095 417.641 447.985 396.001C449.416 393.599 450.908 391.234 452.199 388.765L451.847 388.471C450.593 389.111 450.224 389.601 449.11 389.43C455.749 376.437 470.314 367.5 483.381 362.287C482.115 361.498 482.13 361.626 480.66 361.173C482.035 359.229 492.351 357.647 494.936 357.25C519.64 353.453 550.31 356.421 558.157 384.416C578.175 384.4 583.555 421.851 583.473 436.651C583.41 447.997 580.106 456.818 579.035 467.447C582.036 465.729 584.195 464.208 587.07 466.982C590.338 474.143 584.675 504.031 577.799 510.165C574.004 513.549 573.71 514.058 568.825 513.456C568.421 517.468 567.323 527.611 566.297 530.906C562.53 543.003 561.419 543.015 561.475 556.009C566.41 563.036 572.433 569.207 576.994 576.267C582.422 561.683 600.418 551.914 612.744 543.345C617.148 540.33 622.956 537.724 626.506 533.747C629.686 530.185 632.827 528.432 637.721 528.811C653.266 530.015 661.882 539.064 664.804 553.392C672.495 550.146 679.275 547.187 687.423 545.224C691.109 527.997 691.276 531.452 703.322 521.533C709.151 516.733 714.37 503.691 722.97 499.872C725.866 498.135 728.936 496.283 731.896 494.518C734.874 489.352 735.492 484.99 738.982 479.939C743.539 473.343 750.818 470.445 756.124 465.896C761.022 461.698 768.467 453.389 772.711 448.483C775.719 445.006 779.928 436.601 782.308 432.206C785.644 425.901 789.236 419.734 793.074 413.721C803.206 397.897 815.044 382.791 825.521 367.161C828.736 362.364 831.276 357.09 833.924 351.971C838.545 343.077 843.404 334.308 848.497 325.675C850.379 322.413 852.206 319.139 854.057 315.861C855.161 313.907 857.377 314.21 859.202 314.421C863.893 309.184 868.14 296.996 871.836 290.685C874.771 285.673 873.011 284.579 879.535 282.232C883.106 275.993 893.911 254.954 895.223 248.782C896.065 244.818 895.823 240.439 894.787 236.539C891.498 224.148 872.947 203.877 872.668 196.258C872.531 192.523 874.465 188.355 875.585 184.813C876.952 180.491 878.154 176.08 880.386 172.109C883.757 166.112 890.845 157.715 897.656 155.822C900.301 155.086 903.031 155.25 905.389 156.724C906.409 157.361 907.326 158.184 908.229 158.974Z"/></svg>