<?xml version="1.0" encoding="utf-8" ?><svg xmlns="http://www.w3.org/2000/svg" xmlns:xlink="http://www.w3.org/1999/xlink" width="1377" height="1377" viewBox="0 0 1377 1377"><path transform="scale(1.3448 1.3448)" d="M455.448 168.767C498.714 154.498 574.211 148.414 595.743 203.31C596.56 205.392 597.176 210.161 598.268 211.609C607.978 211.969 612.326 213.275 619.247 220.945C639.853 243.78 646.804 283.376 645.381 313.457C644.678 328.316 639.58 347.591 636.994 362.741C641.122 359.918 647.833 354.984 651.922 360.882C653.762 363.537 654.479 369.719 654.168 373.111C652.884 387.094 648.285 401.834 646.618 415.795C645.59 424.399 635.479 439.498 628.036 443.956C624.526 444.029 623.087 444.018 619.636 443.353C618.007 455.903 616.743 468.156 613.248 480.367C611.77 485.533 607.305 492.061 606.753 496.767C604.781 513.567 606.924 532.97 606.196 549.405L606.703 549.934C610.492 553.943 611.231 556.332 614.27 560.57C617.042 564.271 620.489 567.737 623.349 571.339C630.055 579.783 636.627 587.89 645.622 594.074C652.549 598.836 660.542 604.049 668.363 607.158C679.479 611.406 690.331 615.783 701.273 620.489C722.093 629.443 742.849 640.539 764.059 648.43C791.519 658.647 820.666 665.228 848.223 675.243C851.382 676.391 852.654 677.812 854.906 680.097L855.267 680.474C859.032 679.808 860.893 680.15 864.198 682.269C872.231 687.415 874.451 698.523 876.095 707.262C877.899 716.852 878.016 727.339 879.755 736.906C881.51 746.56 886.696 755.763 889.08 765.361C890.869 772.566 890.047 781.495 891.343 788.453C894.658 806.265 899.429 824.248 901.554 842.286C902.769 852.149 903.065 862.104 902.436 872.022C901.985 879.272 900.08 892.391 901.396 899.007C903.839 911.242 907.565 923.263 910.379 935.419C913.81 950.239 916.681 965.394 918.994 980.435C921.121 994.263 924.098 1010.07 924.573 1024L105.869 1024C106.238 1013.91 108.768 999.172 110.441 989.051C113.624 969.325 117.392 949.698 121.742 930.195C123.911 920.672 126.692 911.245 128.569 901.641C130.602 891.242 127.92 880.154 127.602 869.696C126.796 843.227 135.223 817.353 140.399 791.663C142.164 783.34 141.106 774.41 143.227 766.173C145.71 756.531 151.014 747.678 153.133 737.937C154.71 730.681 154.995 722.777 155.835 715.543C157.48 701.377 159.518 679.579 178.649 680.542C179.016 680.56 185.4 675.034 186.547 674.921C209.65 667.134 233.684 661.714 256.689 653.701C282.381 644.752 306.813 631.997 331.783 621.259C342.607 616.499 356.54 612.429 366.328 607.393C373.086 603.837 379.474 599.619 385.399 594.801C392.864 588.821 399.535 581.83 405.291 574.178C409.666 568.363 414.987 563.073 418.791 556.902C420.86 553.548 422.696 550.966 425.171 547.931C425.597 532.728 425.973 512.039 424.556 496.752C424.411 495.188 420.961 488.532 420.077 486.666C417.994 482.302 416.393 477.725 415.304 473.014C413.255 464.231 412.635 451.718 410.512 444.003C408.406 443.632 406.767 444.109 404.991 443.951C395.292 443.086 388.303 429.009 385.249 420.976C382.824 414.601 383.035 406.393 381.748 399.72C380.208 391.554 377.38 385.253 376.861 376.589C376.477 370.178 375.274 356.047 386.137 358.114C387.646 358.401 391.542 360.903 392.968 361.792C384.379 331.381 379.643 293.285 386.736 262.12C388.8 253.055 393.653 242.019 398.178 233.94C401.659 227.745 405.466 221.739 409.584 215.948C406.089 218.41 403.834 220.061 400.64 222.864C414.376 196.767 437.105 180.536 464.433 170.389L455.448 168.767Z"/></svg>