<?xml version="1.0" encoding="utf-8" ?><svg xmlns="http://www.w3.org/2000/svg" xmlns:xlink="http://www.w3.org/1999/xlink" width="1024" height="1024" viewBox="0 0 1024 1024"><path d="M614.597 47.9972C639.247 48.9329 650.585 50.8853 672.793 63.3374C670.472 60.9367 664.602 57.2313 661.125 54.0088C673.461 58.4189 674.638 57.9732 685.886 66.0736C680.903 59.7727 678.158 57.1985 672.097 52.0257C688.355 58.0448 697.641 64.8292 707.954 78.742C705.495 71.7513 700.75 66.5583 696.722 60.479C701.37 63.2319 710.412 76.5381 713.278 81.4491L720.23 94.7777C719.186 90.011 717.496 85.5406 715.636 81.0478C714.799 78.8875 711.435 73.132 711.704 72.3283C718.483 77.7343 731.516 104.889 732.269 114.064C733.219 125.649 732.362 133.065 725.309 142.348L726.027 142.087C729.673 140.743 732.019 139.429 733.728 135.679C733.904 135.29 734.072 134.897 734.233 134.501L734.941 134.953C735.568 138.982 727.176 147.086 724.307 149.736C732.618 153.768 733.792 155.401 739.709 162.5C735.05 158.931 730.181 155.646 725.128 152.662C730.693 158.555 736.544 165.024 738.737 173.103C737.133 171.435 736.094 169.691 734.815 167.766C737.96 176.72 740.279 184.312 740.804 193.98C741.073 198.916 740.828 203.937 741.115 208.777L738.501 200.655C738.543 202.87 738.865 208.887 738.239 210.623C737.103 209.406 736.904 207.875 736.403 206.167C735.345 214.826 735.451 222.074 739.083 230.296C742.111 237.149 746.588 240.045 746.507 248.06C746.386 260.145 736.686 268.387 735.529 279.793C734.521 289.743 738.517 300.689 740.41 310.516C741.444 316.031 741.832 321.648 741.567 327.253C740.991 342.163 733.892 361.257 730.759 376.296C728.239 387.148 728.265 398.544 726.365 409.454C724.343 420.405 720.647 430.977 717.801 441.731C715.17 451.666 713.842 461.579 710.009 471.168C702.609 489.683 681.707 488.226 666.313 493.366C665.124 500.596 664.031 508.452 664.231 515.82C664.399 522.004 668.801 528.267 669.884 533.876C671.659 543.062 672.076 548.145 678.278 555.928C683.274 562.198 688.277 570.506 694.19 576.138C700.631 580.867 713.793 586.813 721.4 590.656L767.259 613.95C786.79 623.64 806.387 632.213 826.794 639.801C840.499 644.897 851.747 646.379 862.496 657.24C901.45 696.603 903.484 762.397 910.137 813.756L928.324 959.599C931.111 981.431 933.535 1002.2 936.871 1024L75.9044 1024C77.0352 1017.71 77.8585 1009.01 78.8052 1002.37C80.764 989.145 82.8482 975.938 85.0573 962.752C86.8143 952.189 89.4512 942.227 91.4207 931.764C92.0389 928.48 90.6769 922.435 90.1249 918.887C88.2004 906.517 92.3263 896.741 97.3981 885.636C95.1404 876.265 93.8317 864.795 95.0347 855.247C95.903 845.518 100.334 836.089 102.249 826.688C105.579 810.342 109.368 795.688 115.144 780.053C117.535 773.579 117.465 759.64 118.806 752.189C122.311 732.712 126.523 713.478 133.896 695.032C141.15 676.393 155.117 650.544 171.486 639.081C174.262 637.137 188.948 630.942 193.887 628.056C205.058 621.529 222.696 612.84 234.829 609.578C250.218 605.44 262.315 604.89 277.484 597.719C302.711 585.791 326.687 571.646 351.338 558.629C361.992 553.004 373.851 548.281 384.946 543.419C390.516 535.098 402.286 525.032 409.742 515.896C413.168 511.635 416.475 507.28 419.659 502.835C427.832 491.266 428.171 487.9 443.159 484.764C445.144 480.987 446.963 476.783 449.005 473.089C454.887 462.444 460.203 453.59 461.351 441.124C462.066 433.36 461.671 425.603 461.477 417.762C454.169 411.954 455.5 406.335 451.545 399.799C443.344 386.246 438.594 371.803 431.737 357.673C432.137 359.237 433.106 362.326 432.914 363.769C428.485 354.964 427.576 344.799 423.924 335.912C421.182 329.239 416.851 323.265 414.006 316.216C413.117 314.037 412.382 311.798 411.806 309.517C409.511 300.26 411.535 293.132 410.566 284.079C409.78 276.736 407.108 268.393 405.884 261.044C405.135 256.545 405.14 251.309 404.572 246.708C402.683 231.387 400.926 209.921 403.857 194.628C402.608 197.235 401.178 199.938 399.858 202.526C404.51 173.596 411.894 147.52 431.844 124.948C442.386 113.02 451.093 103.885 460.643 90.9545L461.414 90.6898L461.008 90.5337L461.511 90.226C460.625 92.9577 459.697 95.4994 458.704 98.1901C459.031 97.8011 459.363 97.4164 459.7 97.0361C487.55 66.0091 519.029 54.562 559.741 54.984C569.972 55.0901 584.65 55.5095 594.455 54.8755C592.846 54.1214 586.799 51.6144 586.174 50.4782C590.788 50.9994 593.612 52.6155 599.294 52.3949C609.448 52.0008 616.83 50.8966 627.107 51.7112C622.982 50.5871 618.707 49.2312 614.597 47.9972Z"/><path fill="#F9F7F8" fill-opacity="0.015686275" d="M713.278 81.4491L714.074 80.5353L714.808 81.273L715.636 81.0478C717.496 85.5406 719.186 90.011 720.23 94.7777L713.278 81.4491Z"/></svg>